<svg xmlns="http://www.w3.org/2000/svg" viewBox="0 0 760 620" width="760" height="620" font-family="Arial, 'Helvetica Neue', Helvetica, sans-serif">
<rect x="2" y="2" width="756" height="616" rx="16" fill="#ffffff" stroke="#d0d7de" stroke-width="2"/>
<text x="380" y="38" text-anchor="middle" font-size="20" font-weight="700" fill="#1f2d3d">Crossover types</text>
<text x="380" y="62" text-anchor="middle" font-size="13.5" fill="#6b7280">a = gene from Parent 1, b = gene from Parent 2</text>
<text x="60" y="96" font-size="15.5" font-weight="700" fill="#1f2d3d">1. Single-point crossover</text>
<text x="203" y="122" text-anchor="end" font-size="12.5" fill="#6b7280">Parent 1</text>
<text x="203" y="156" text-anchor="end" font-size="12.5" fill="#6b7280">Parent 2</text>
<text x="203" y="204" text-anchor="end" font-size="12.5" fill="#6b7280">Child</text>
<rect x="215" y="102" width="44" height="30" rx="5" fill="#e9f7ef" stroke="#0b6e4f" stroke-width="2"/><text x="237" y="122" text-anchor="middle" font-family="'DejaVu Sans Mono', 'Courier New', monospace" font-size="13" fill="#0b6e4f">a1</text><rect x="259" y="102" width="44" height="30" rx="5" fill="#e9f7ef" stroke="#0b6e4f" stroke-width="2"/><text x="281" y="122" text-anchor="middle" font-family="'DejaVu Sans Mono', 'Courier New', monospace" font-size="13" fill="#0b6e4f">a2</text><rect x="303" y="102" width="44" height="30" rx="5" fill="#e9f7ef" stroke="#0b6e4f" stroke-width="2"/><text x="325" y="122" text-anchor="middle" font-family="'DejaVu Sans Mono', 'Courier New', monospace" font-size="13" fill="#0b6e4f">a3</text><rect x="347" y="102" width="44" height="30" rx="5" fill="#e9f7ef" stroke="#0b6e4f" stroke-width="2"/><text x="369" y="122" text-anchor="middle" font-family="'DejaVu Sans Mono', 'Courier New', monospace" font-size="13" fill="#0b6e4f">a4</text><rect x="391" y="102" width="44" height="30" rx="5" fill="#e9f7ef" stroke="#0b6e4f" stroke-width="2"/><text x="413" y="122" text-anchor="middle" font-family="'DejaVu Sans Mono', 'Courier New', monospace" font-size="13" fill="#0b6e4f">a5</text><rect x="435" y="102" width="44" height="30" rx="5" fill="#e9f7ef" stroke="#0b6e4f" stroke-width="2"/><text x="457" y="122" text-anchor="middle" font-family="'DejaVu Sans Mono', 'Courier New', monospace" font-size="13" fill="#0b6e4f">a6</text><rect x="479" y="102" width="44" height="30" rx="5" fill="#e9f7ef" stroke="#0b6e4f" stroke-width="2"/><text x="501" y="122" text-anchor="middle" font-family="'DejaVu Sans Mono', 'Courier New', monospace" font-size="13" fill="#0b6e4f">a7</text><rect x="523" y="102" width="44" height="30" rx="5" fill="#e9f7ef" stroke="#0b6e4f" stroke-width="2"/><text x="545" y="122" text-anchor="middle" font-family="'DejaVu Sans Mono', 'Courier New', monospace" font-size="13" fill="#0b6e4f">a8</text>
<rect x="215" y="136" width="44" height="30" rx="5" fill="#e8f0fe" stroke="#1f6feb" stroke-width="2"/><text x="237" y="156" text-anchor="middle" font-family="'DejaVu Sans Mono', 'Courier New', monospace" font-size="13" fill="#1f6feb">b1</text><rect x="259" y="136" width="44" height="30" rx="5" fill="#e8f0fe" stroke="#1f6feb" stroke-width="2"/><text x="281" y="156" text-anchor="middle" font-family="'DejaVu Sans Mono', 'Courier New', monospace" font-size="13" fill="#1f6feb">b2</text><rect x="303" y="136" width="44" height="30" rx="5" fill="#e8f0fe" stroke="#1f6feb" stroke-width="2"/><text x="325" y="156" text-anchor="middle" font-family="'DejaVu Sans Mono', 'Courier New', monospace" font-size="13" fill="#1f6feb">b3</text><rect x="347" y="136" width="44" height="30" rx="5" fill="#e8f0fe" stroke="#1f6feb" stroke-width="2"/><text x="369" y="156" text-anchor="middle" font-family="'DejaVu Sans Mono', 'Courier New', monospace" font-size="13" fill="#1f6feb">b4</text><rect x="391" y="136" width="44" height="30" rx="5" fill="#e8f0fe" stroke="#1f6feb" stroke-width="2"/><text x="413" y="156" text-anchor="middle" font-family="'DejaVu Sans Mono', 'Courier New', monospace" font-size="13" fill="#1f6feb">b5</text><rect x="435" y="136" width="44" height="30" rx="5" fill="#e8f0fe" stroke="#1f6feb" stroke-width="2"/><text x="457" y="156" text-anchor="middle" font-family="'DejaVu Sans Mono', 'Courier New', monospace" font-size="13" fill="#1f6feb">b6</text><rect x="479" y="136" width="44" height="30" rx="5" fill="#e8f0fe" stroke="#1f6feb" stroke-width="2"/><text x="501" y="156" text-anchor="middle" font-family="'DejaVu Sans Mono', 'Courier New', monospace" font-size="13" fill="#1f6feb">b7</text><rect x="523" y="136" width="44" height="30" rx="5" fill="#e8f0fe" stroke="#1f6feb" stroke-width="2"/><text x="545" y="156" text-anchor="middle" font-family="'DejaVu Sans Mono', 'Courier New', monospace" font-size="13" fill="#1f6feb">b8</text>
<rect x="215" y="184" width="44" height="30" rx="5" fill="#e9f7ef" stroke="#0b6e4f" stroke-width="2"/><text x="237" y="204" text-anchor="middle" font-family="'DejaVu Sans Mono', 'Courier New', monospace" font-size="13" fill="#0b6e4f">a1</text><rect x="259" y="184" width="44" height="30" rx="5" fill="#e9f7ef" stroke="#0b6e4f" stroke-width="2"/><text x="281" y="204" text-anchor="middle" font-family="'DejaVu Sans Mono', 'Courier New', monospace" font-size="13" fill="#0b6e4f">a2</text><rect x="303" y="184" width="44" height="30" rx="5" fill="#e9f7ef" stroke="#0b6e4f" stroke-width="2"/><text x="325" y="204" text-anchor="middle" font-family="'DejaVu Sans Mono', 'Courier New', monospace" font-size="13" fill="#0b6e4f">a3</text><rect x="347" y="184" width="44" height="30" rx="5" fill="#e9f7ef" stroke="#0b6e4f" stroke-width="2"/><text x="369" y="204" text-anchor="middle" font-family="'DejaVu Sans Mono', 'Courier New', monospace" font-size="13" fill="#0b6e4f">a4</text><rect x="391" y="184" width="44" height="30" rx="5" fill="#e8f0fe" stroke="#1f6feb" stroke-width="2"/><text x="413" y="204" text-anchor="middle" font-family="'DejaVu Sans Mono', 'Courier New', monospace" font-size="13" fill="#1f6feb">b5</text><rect x="435" y="184" width="44" height="30" rx="5" fill="#e8f0fe" stroke="#1f6feb" stroke-width="2"/><text x="457" y="204" text-anchor="middle" font-family="'DejaVu Sans Mono', 'Courier New', monospace" font-size="13" fill="#1f6feb">b6</text><rect x="479" y="184" width="44" height="30" rx="5" fill="#e8f0fe" stroke="#1f6feb" stroke-width="2"/><text x="501" y="204" text-anchor="middle" font-family="'DejaVu Sans Mono', 'Courier New', monospace" font-size="13" fill="#1f6feb">b7</text><rect x="523" y="184" width="44" height="30" rx="5" fill="#e8f0fe" stroke="#1f6feb" stroke-width="2"/><text x="545" y="204" text-anchor="middle" font-family="'DejaVu Sans Mono', 'Courier New', monospace" font-size="13" fill="#1f6feb">b8</text>
<line x1="391" y1="96" x2="391" y2="172" stroke="#c0392b" stroke-width="2" stroke-dasharray="5,4"/>
<line x1="391" y1="178" x2="391" y2="220" stroke="#c0392b" stroke-width="2" stroke-dasharray="5,4"/>
<text x="60" y="272" font-size="15.5" font-weight="700" fill="#1f2d3d">2. Two-point crossover</text>
<text x="203" y="298" text-anchor="end" font-size="12.5" fill="#6b7280">Parent 1</text>
<text x="203" y="332" text-anchor="end" font-size="12.5" fill="#6b7280">Parent 2</text>
<text x="203" y="380" text-anchor="end" font-size="12.5" fill="#6b7280">Child</text>
<rect x="215" y="278" width="44" height="30" rx="5" fill="#e9f7ef" stroke="#0b6e4f" stroke-width="2"/><text x="237" y="298" text-anchor="middle" font-family="'DejaVu Sans Mono', 'Courier New', monospace" font-size="13" fill="#0b6e4f">a1</text><rect x="259" y="278" width="44" height="30" rx="5" fill="#e9f7ef" stroke="#0b6e4f" stroke-width="2"/><text x="281" y="298" text-anchor="middle" font-family="'DejaVu Sans Mono', 'Courier New', monospace" font-size="13" fill="#0b6e4f">a2</text><rect x="303" y="278" width="44" height="30" rx="5" fill="#e9f7ef" stroke="#0b6e4f" stroke-width="2"/><text x="325" y="298" text-anchor="middle" font-family="'DejaVu Sans Mono', 'Courier New', monospace" font-size="13" fill="#0b6e4f">a3</text><rect x="347" y="278" width="44" height="30" rx="5" fill="#e9f7ef" stroke="#0b6e4f" stroke-width="2"/><text x="369" y="298" text-anchor="middle" font-family="'DejaVu Sans Mono', 'Courier New', monospace" font-size="13" fill="#0b6e4f">a4</text><rect x="391" y="278" width="44" height="30" rx="5" fill="#e9f7ef" stroke="#0b6e4f" stroke-width="2"/><text x="413" y="298" text-anchor="middle" font-family="'DejaVu Sans Mono', 'Courier New', monospace" font-size="13" fill="#0b6e4f">a5</text><rect x="435" y="278" width="44" height="30" rx="5" fill="#e9f7ef" stroke="#0b6e4f" stroke-width="2"/><text x="457" y="298" text-anchor="middle" font-family="'DejaVu Sans Mono', 'Courier New', monospace" font-size="13" fill="#0b6e4f">a6</text><rect x="479" y="278" width="44" height="30" rx="5" fill="#e9f7ef" stroke="#0b6e4f" stroke-width="2"/><text x="501" y="298" text-anchor="middle" font-family="'DejaVu Sans Mono', 'Courier New', monospace" font-size="13" fill="#0b6e4f">a7</text><rect x="523" y="278" width="44" height="30" rx="5" fill="#e9f7ef" stroke="#0b6e4f" stroke-width="2"/><text x="545" y="298" text-anchor="middle" font-family="'DejaVu Sans Mono', 'Courier New', monospace" font-size="13" fill="#0b6e4f">a8</text>
<rect x="215" y="312" width="44" height="30" rx="5" fill="#e8f0fe" stroke="#1f6feb" stroke-width="2"/><text x="237" y="332" text-anchor="middle" font-family="'DejaVu Sans Mono', 'Courier New', monospace" font-size="13" fill="#1f6feb">b1</text><rect x="259" y="312" width="44" height="30" rx="5" fill="#e8f0fe" stroke="#1f6feb" stroke-width="2"/><text x="281" y="332" text-anchor="middle" font-family="'DejaVu Sans Mono', 'Courier New', monospace" font-size="13" fill="#1f6feb">b2</text><rect x="303" y="312" width="44" height="30" rx="5" fill="#e8f0fe" stroke="#1f6feb" stroke-width="2"/><text x="325" y="332" text-anchor="middle" font-family="'DejaVu Sans Mono', 'Courier New', monospace" font-size="13" fill="#1f6feb">b3</text><rect x="347" y="312" width="44" height="30" rx="5" fill="#e8f0fe" stroke="#1f6feb" stroke-width="2"/><text x="369" y="332" text-anchor="middle" font-family="'DejaVu Sans Mono', 'Courier New', monospace" font-size="13" fill="#1f6feb">b4</text><rect x="391" y="312" width="44" height="30" rx="5" fill="#e8f0fe" stroke="#1f6feb" stroke-width="2"/><text x="413" y="332" text-anchor="middle" font-family="'DejaVu Sans Mono', 'Courier New', monospace" font-size="13" fill="#1f6feb">b5</text><rect x="435" y="312" width="44" height="30" rx="5" fill="#e8f0fe" stroke="#1f6feb" stroke-width="2"/><text x="457" y="332" text-anchor="middle" font-family="'DejaVu Sans Mono', 'Courier New', monospace" font-size="13" fill="#1f6feb">b6</text><rect x="479" y="312" width="44" height="30" rx="5" fill="#e8f0fe" stroke="#1f6feb" stroke-width="2"/><text x="501" y="332" text-anchor="middle" font-family="'DejaVu Sans Mono', 'Courier New', monospace" font-size="13" fill="#1f6feb">b7</text><rect x="523" y="312" width="44" height="30" rx="5" fill="#e8f0fe" stroke="#1f6feb" stroke-width="2"/><text x="545" y="332" text-anchor="middle" font-family="'DejaVu Sans Mono', 'Courier New', monospace" font-size="13" fill="#1f6feb">b8</text>
<rect x="215" y="360" width="44" height="30" rx="5" fill="#e9f7ef" stroke="#0b6e4f" stroke-width="2"/><text x="237" y="380" text-anchor="middle" font-family="'DejaVu Sans Mono', 'Courier New', monospace" font-size="13" fill="#0b6e4f">a1</text><rect x="259" y="360" width="44" height="30" rx="5" fill="#e9f7ef" stroke="#0b6e4f" stroke-width="2"/><text x="281" y="380" text-anchor="middle" font-family="'DejaVu Sans Mono', 'Courier New', monospace" font-size="13" fill="#0b6e4f">a2</text><rect x="303" y="360" width="44" height="30" rx="5" fill="#e8f0fe" stroke="#1f6feb" stroke-width="2"/><text x="325" y="380" text-anchor="middle" font-family="'DejaVu Sans Mono', 'Courier New', monospace" font-size="13" fill="#1f6feb">b3</text><rect x="347" y="360" width="44" height="30" rx="5" fill="#e8f0fe" stroke="#1f6feb" stroke-width="2"/><text x="369" y="380" text-anchor="middle" font-family="'DejaVu Sans Mono', 'Courier New', monospace" font-size="13" fill="#1f6feb">b4</text><rect x="391" y="360" width="44" height="30" rx="5" fill="#e8f0fe" stroke="#1f6feb" stroke-width="2"/><text x="413" y="380" text-anchor="middle" font-family="'DejaVu Sans Mono', 'Courier New', monospace" font-size="13" fill="#1f6feb">b5</text><rect x="435" y="360" width="44" height="30" rx="5" fill="#e9f7ef" stroke="#0b6e4f" stroke-width="2"/><text x="457" y="380" text-anchor="middle" font-family="'DejaVu Sans Mono', 'Courier New', monospace" font-size="13" fill="#0b6e4f">a6</text><rect x="479" y="360" width="44" height="30" rx="5" fill="#e9f7ef" stroke="#0b6e4f" stroke-width="2"/><text x="501" y="380" text-anchor="middle" font-family="'DejaVu Sans Mono', 'Courier New', monospace" font-size="13" fill="#0b6e4f">a7</text><rect x="523" y="360" width="44" height="30" rx="5" fill="#e9f7ef" stroke="#0b6e4f" stroke-width="2"/><text x="545" y="380" text-anchor="middle" font-family="'DejaVu Sans Mono', 'Courier New', monospace" font-size="13" fill="#0b6e4f">a8</text>
<line x1="303" y1="272" x2="303" y2="348" stroke="#c0392b" stroke-width="2" stroke-dasharray="5,4"/>
<line x1="303" y1="354" x2="303" y2="396" stroke="#c0392b" stroke-width="2" stroke-dasharray="5,4"/>
<line x1="435" y1="272" x2="435" y2="348" stroke="#c0392b" stroke-width="2" stroke-dasharray="5,4"/>
<line x1="435" y1="354" x2="435" y2="396" stroke="#c0392b" stroke-width="2" stroke-dasharray="5,4"/>
<text x="60" y="448" font-size="15.5" font-weight="700" fill="#1f2d3d">3. Uniform crossover</text>
<text x="203" y="474" text-anchor="end" font-size="12.5" fill="#6b7280">Parent 1</text>
<text x="203" y="508" text-anchor="end" font-size="12.5" fill="#6b7280">Parent 2</text>
<text x="203" y="556" text-anchor="end" font-size="12.5" fill="#6b7280">Child</text>
<rect x="215" y="454" width="44" height="30" rx="5" fill="#e9f7ef" stroke="#0b6e4f" stroke-width="2"/><text x="237" y="474" text-anchor="middle" font-family="'DejaVu Sans Mono', 'Courier New', monospace" font-size="13" fill="#0b6e4f">a1</text><rect x="259" y="454" width="44" height="30" rx="5" fill="#e9f7ef" stroke="#0b6e4f" stroke-width="2"/><text x="281" y="474" text-anchor="middle" font-family="'DejaVu Sans Mono', 'Courier New', monospace" font-size="13" fill="#0b6e4f">a2</text><rect x="303" y="454" width="44" height="30" rx="5" fill="#e9f7ef" stroke="#0b6e4f" stroke-width="2"/><text x="325" y="474" text-anchor="middle" font-family="'DejaVu Sans Mono', 'Courier New', monospace" font-size="13" fill="#0b6e4f">a3</text><rect x="347" y="454" width="44" height="30" rx="5" fill="#e9f7ef" stroke="#0b6e4f" stroke-width="2"/><text x="369" y="474" text-anchor="middle" font-family="'DejaVu Sans Mono', 'Courier New', monospace" font-size="13" fill="#0b6e4f">a4</text><rect x="391" y="454" width="44" height="30" rx="5" fill="#e9f7ef" stroke="#0b6e4f" stroke-width="2"/><text x="413" y="474" text-anchor="middle" font-family="'DejaVu Sans Mono', 'Courier New', monospace" font-size="13" fill="#0b6e4f">a5</text><rect x="435" y="454" width="44" height="30" rx="5" fill="#e9f7ef" stroke="#0b6e4f" stroke-width="2"/><text x="457" y="474" text-anchor="middle" font-family="'DejaVu Sans Mono', 'Courier New', monospace" font-size="13" fill="#0b6e4f">a6</text><rect x="479" y="454" width="44" height="30" rx="5" fill="#e9f7ef" stroke="#0b6e4f" stroke-width="2"/><text x="501" y="474" text-anchor="middle" font-family="'DejaVu Sans Mono', 'Courier New', monospace" font-size="13" fill="#0b6e4f">a7</text><rect x="523" y="454" width="44" height="30" rx="5" fill="#e9f7ef" stroke="#0b6e4f" stroke-width="2"/><text x="545" y="474" text-anchor="middle" font-family="'DejaVu Sans Mono', 'Courier New', monospace" font-size="13" fill="#0b6e4f">a8</text>
<rect x="215" y="488" width="44" height="30" rx="5" fill="#e8f0fe" stroke="#1f6feb" stroke-width="2"/><text x="237" y="508" text-anchor="middle" font-family="'DejaVu Sans Mono', 'Courier New', monospace" font-size="13" fill="#1f6feb">b1</text><rect x="259" y="488" width="44" height="30" rx="5" fill="#e8f0fe" stroke="#1f6feb" stroke-width="2"/><text x="281" y="508" text-anchor="middle" font-family="'DejaVu Sans Mono', 'Courier New', monospace" font-size="13" fill="#1f6feb">b2</text><rect x="303" y="488" width="44" height="30" rx="5" fill="#e8f0fe" stroke="#1f6feb" stroke-width="2"/><text x="325" y="508" text-anchor="middle" font-family="'DejaVu Sans Mono', 'Courier New', monospace" font-size="13" fill="#1f6feb">b3</text><rect x="347" y="488" width="44" height="30" rx="5" fill="#e8f0fe" stroke="#1f6feb" stroke-width="2"/><text x="369" y="508" text-anchor="middle" font-family="'DejaVu Sans Mono', 'Courier New', monospace" font-size="13" fill="#1f6feb">b4</text><rect x="391" y="488" width="44" height="30" rx="5" fill="#e8f0fe" stroke="#1f6feb" stroke-width="2"/><text x="413" y="508" text-anchor="middle" font-family="'DejaVu Sans Mono', 'Courier New', monospace" font-size="13" fill="#1f6feb">b5</text><rect x="435" y="488" width="44" height="30" rx="5" fill="#e8f0fe" stroke="#1f6feb" stroke-width="2"/><text x="457" y="508" text-anchor="middle" font-family="'DejaVu Sans Mono', 'Courier New', monospace" font-size="13" fill="#1f6feb">b6</text><rect x="479" y="488" width="44" height="30" rx="5" fill="#e8f0fe" stroke="#1f6feb" stroke-width="2"/><text x="501" y="508" text-anchor="middle" font-family="'DejaVu Sans Mono', 'Courier New', monospace" font-size="13" fill="#1f6feb">b7</text><rect x="523" y="488" width="44" height="30" rx="5" fill="#e8f0fe" stroke="#1f6feb" stroke-width="2"/><text x="545" y="508" text-anchor="middle" font-family="'DejaVu Sans Mono', 'Courier New', monospace" font-size="13" fill="#1f6feb">b8</text>
<rect x="215" y="536" width="44" height="30" rx="5" fill="#e9f7ef" stroke="#0b6e4f" stroke-width="2"/><text x="237" y="556" text-anchor="middle" font-family="'DejaVu Sans Mono', 'Courier New', monospace" font-size="13" fill="#0b6e4f">a1</text><rect x="259" y="536" width="44" height="30" rx="5" fill="#e8f0fe" stroke="#1f6feb" stroke-width="2"/><text x="281" y="556" text-anchor="middle" font-family="'DejaVu Sans Mono', 'Courier New', monospace" font-size="13" fill="#1f6feb">b2</text><rect x="303" y="536" width="44" height="30" rx="5" fill="#e9f7ef" stroke="#0b6e4f" stroke-width="2"/><text x="325" y="556" text-anchor="middle" font-family="'DejaVu Sans Mono', 'Courier New', monospace" font-size="13" fill="#0b6e4f">a3</text><rect x="347" y="536" width="44" height="30" rx="5" fill="#e8f0fe" stroke="#1f6feb" stroke-width="2"/><text x="369" y="556" text-anchor="middle" font-family="'DejaVu Sans Mono', 'Courier New', monospace" font-size="13" fill="#1f6feb">b4</text><rect x="391" y="536" width="44" height="30" rx="5" fill="#e8f0fe" stroke="#1f6feb" stroke-width="2"/><text x="413" y="556" text-anchor="middle" font-family="'DejaVu Sans Mono', 'Courier New', monospace" font-size="13" fill="#1f6feb">b5</text><rect x="435" y="536" width="44" height="30" rx="5" fill="#e9f7ef" stroke="#0b6e4f" stroke-width="2"/><text x="457" y="556" text-anchor="middle" font-family="'DejaVu Sans Mono', 'Courier New', monospace" font-size="13" fill="#0b6e4f">a6</text><rect x="479" y="536" width="44" height="30" rx="5" fill="#e8f0fe" stroke="#1f6feb" stroke-width="2"/><text x="501" y="556" text-anchor="middle" font-family="'DejaVu Sans Mono', 'Courier New', monospace" font-size="13" fill="#1f6feb">b7</text><rect x="523" y="536" width="44" height="30" rx="5" fill="#e9f7ef" stroke="#0b6e4f" stroke-width="2"/><text x="545" y="556" text-anchor="middle" font-family="'DejaVu Sans Mono', 'Courier New', monospace" font-size="13" fill="#0b6e4f">a8</text>
<text x="583" y="556" font-size="12.5" font-style="italic" fill="#6b7280">each gene at random</text>
</svg>